<svg aria-hidden="true" style="position:absolute;width:0;height:0" xmlns="http://www.w3.org/2000/svg" overflow="hidden">
<defs><symbol id="icon-Arrow-top" viewBox="0 0 28 32"><path fill="var(--color1, #fff)" d="M15.479 1.005a1.778 1.778 0 00-2.514 0L1.651 12.319a1.778 1.778 0 002.514 2.514L14.222 4.776l10.057 10.057a1.778 1.778 0 002.514-2.514L15.479 1.005zM16 30.545V2.262h-3.556v28.283H16z"/></symbol>
<symbol id="icon-Arrow-Left" viewBox="0 0 21 32"><path d="M1.816 15.652c0-.561.209-1.122.625-1.55L15.56.642c.835-.856 2.187-.856 3.022 0s.834 2.244 0 3.1L6.974 15.652l11.608 11.91c.834.856.834 2.244 0 3.1s-2.187.857-3.022 0L2.441 17.202a2.214 2.214 0 01-.625-1.55z"/></symbol>
<symbol id="icon-Arrow-Right" viewBox="0 0 19 32"><path d="M17.021 15.652c0 .561-.204 1.122-.612 1.55L3.57 30.662c-.817.856-2.141.856-2.957 0s-.816-2.244 0-3.1l11.361-11.91L.613 3.742c-.816-.856-.816-2.244 0-3.1s2.141-.857 2.957 0l12.839 13.46c.408.428.612.989.612 1.55z"/></symbol>
<symbol id="icon-Group-1" viewBox="0 0 26 32"><path d="M24.219 10.803H2.021a.375.375 0 01-.375-.375V2.639c0-.207.168-.375.375-.375h22.198c.207 0 .375.168.375.375v7.789a.375.375 0 01-.375.375zm-21.823-.75h21.448V3.014H2.396v7.039z"/><path  d="M22.498 10.803H3.742a.375.375 0 01-.375-.375V4.36c0-.207.168-.375.375-.375h18.756c.207 0 .375.168.375.375v6.068a.375.375 0 01-.375.375zm-18.381-.75h18.006V4.735H4.117v5.318z"/><patch d="M11.989 10.803H4.873a1.508 1.508 0 01-1.506-1.506V5.491a1.508 1.508 0 011.506-1.506h7.116a1.508 1.508 0 011.506 1.506v3.806a1.508 1.508 0 01-1.506 1.506zM4.873 4.735a.757.757 0 00-.756.756v3.806c0 .417.339.755.756.756h7.116a.757.757 0 00.756-.756V5.491a.757.757 0 00-.756-.756H4.873z"/><path d="M21.367 10.803h-7.116a1.508 1.508 0 01-1.506-1.506V5.491a1.508 1.508 0 011.506-1.506h7.116a1.508 1.508 0 011.506 1.506v3.806a1.508 1.508 0 01-1.506 1.506zm-7.116-6.068a.757.757 0 00-.756.756v3.806c0 .417.339.755.756.756h7.116a.757.757 0 00.756-.756V5.491a.757.757 0 00-.756-.756h-7.116z"/><path d="M24.491 29.736H1.75A1.508 1.508 0 01.244 28.23V11.559a1.508 1.508 0 011.506-1.506h22.741a1.508 1.508 0 011.506 1.506V28.23a1.508 1.508 0 01-1.506 1.506zM1.749 10.803a.757.757 0 00-.756.756V28.23c0 .417.339.755.756.756H24.49a.757.757 0 00.756-.756V11.559a.757.757 0 00-.756-.756H1.749zM24.635 3.014H1.605A1.364 1.364 0 01.243 1.652v-.291A1.364 1.364 0 011.605-.001h23.03c.752.001 1.361.61 1.362 1.362v.291a1.364 1.364 0 01-1.362 1.362zM1.605.75a.613.613 0 00-.612.612v.291c0 .338.274.611.612.612h23.03a.613.613 0 00.612-.612v-.291a.613.613 0 00-.612-.612H1.605z"/><path d="M24.635 32H1.605a1.364 1.364 0 01-1.362-1.362v-.291a1.364 1.364 0 011.362-1.362h23.03c.752.001 1.361.61 1.362 1.362v.291A1.364 1.364 0 0124.635 32zm-23.03-2.264a.613.613 0 00-.612.612v.291c0 .338.274.611.612.612h23.03a.613.613 0 00.612-.612v-.291a.613.613 0 00-.612-.612H1.605z"/></symbol>
<symbol id="icon-Group-2" viewBox="0 0 41 32"><path d="M31.137 17.092H9.888a1.85 1.85 0 01-1.849-1.849V1.9A1.85 1.85 0 019.888.051h21.249A1.85 1.85 0 0132.986 1.9v13.343a1.85 1.85 0 01-1.849 1.849zM9.888 1.013a.887.887 0 00-.887.887v13.343c.001.49.398.887.887.887h21.249a.888.888 0 00.887-.887V1.9a.888.888 0 00-.887-.887H9.888z"/><path d="M31.137 29.084H9.888a1.85 1.85 0 01-1.849-1.849v-9.256a1.85 1.85 0 011.849-1.849h21.249a1.85 1.85 0 011.849 1.849v9.256a1.85 1.85 0 01-1.849 1.849zM9.888 17.092a.888.888 0 00-.887.887v9.256c.001.49.398.887.887.887h21.249a.888.888 0 00.887-.887v-9.256a.888.888 0 00-.887-.887H9.888z"/><path d="M39.177 29.084h-5.304a1.85 1.85 0 01-1.849-1.849V11.013a1.85 1.85 0 011.849-1.849h5.304a1.85 1.85 0 011.849 1.849v16.222a1.85 1.85 0 01-1.849 1.849zm-5.304-18.958a.888.888 0 00-.887.887v16.222c.001.49.398.887.887.887h5.304a.888.888 0 00.887-.887V11.013a.888.888 0 00-.887-.887h-5.304zM7.152 29.084H1.848a1.85 1.85 0 01-1.849-1.849V11.013a1.85 1.85 0 011.849-1.849h5.304a1.85 1.85 0 011.849 1.849v16.222a1.85 1.85 0 01-1.849 1.849zM1.849 10.126a.888.888 0 00-.887.887v16.222c.001.49.398.887.887.887h5.304a.888.888 0 00.887-.887V11.013a.887.887 0 00-.887-.887H1.849z"/><path d="M32.505 23.088H8.52a.48.48 0 110-.962h23.985a.481.481 0 010 .962zM4.501 31.949a1.733 1.733 0 01-1.683-1.315l-.477-1.915a.481.481 0 01.466-.597h3.388a.481.481 0 01.467.597l-.478 1.915a1.732 1.732 0 01-1.683 1.315zm-1.079-2.865l.329 1.318a.773.773 0 001.5 0l.329-1.318H3.423zM36.525 31.949a1.732 1.732 0 01-1.683-1.315l-.477-1.915a.48.48 0 01.466-.597h3.388a.481.481 0 01.467.597l-.477 1.915a1.732 1.732 0 01-1.683 1.315zm-1.078-2.865l.329 1.318a.773.773 0 001.5 0l.329-1.318h-2.157z"/></symbol><symbol id="icon-Group-3" viewBox="0 0 36 32"><path d="M34.016 13.118H2.347a.426.426 0 01-.426-.426V3.429c0-.235.191-.426.426-.426h31.669c.235 0 .426.191.426.426v9.263a.426.426 0 01-.426.426zm-31.243-.852H33.59v-8.41H2.773v8.41z"/><path d="M34.016 22.381H2.347a.426.426 0 01-.426-.426v-9.263c0-.235.191-.426.426-.426h31.669c.235 0 .426.191.426.426v9.263a.426.426 0 01-.426.426zm-31.243-.853H33.59v-8.41H2.773v8.41z"/><path d="M34.016 31.643H2.347a.426.426 0 01-.426-.426v-9.262c0-.235.191-.426.426-.426h31.669c.235 0 .426.191.426.426v9.263a.426.426 0 01-.426.426zm-31.243-.852H33.59v-8.41H2.773v8.41zM18.979 8.487h-1.594a.426.426 0 010-.852h1.594a.426.426 0 010 .852zM18.979 17.749h-1.594a.426.426 0 010-.852h1.594a.426.426 0 010 .852z"/><path d="M18.979 27.012h-1.594a.426.426 0 010-.852h1.594a.426.426 0 010 .852zM35.227 3.856H1.136A1.137 1.137 0 010 2.72V1.494A1.137 1.137 0 011.136.358h34.091a1.137 1.137 0 011.136 1.136V2.72a1.137 1.137 0 01-1.136 1.136zM1.136 1.209a.284.284 0 00-.284.284v1.226c0 .157.127.284.284.284h34.091a.284.284 0 00.284-.284V1.493a.284.284 0 00-.284-.284H1.136z"/></symbol>
<symbol id="icon-Group-4" viewBox="0 0 22 32"><path d="M21.365 32H.395a.375.375 0 01-.375-.375V.375C.02.168.188 0 .395 0h20.97c.207 0 .375.168.375.375v31.25a.375.375 0 01-.375.375zM.77 31.25h20.22V.75H.77v30.5z"/><path d="M10.88 22.878c-.207 0-.375-.12-.375-.268V.268c0-.148.168-.268.375-.268s.375.12.375.268V22.61c0 .148-.168.268-.375.268zM10.88 32H.395a.375.375 0 01-.375-.375v-4.561c0-.207.168-.375.375-.375H10.88c.207 0 .375.168.375.375v4.561a.375.375 0 01-.375.375zM.77 31.25h9.735v-3.811H.77v3.811z"/><path d="M10.88 27.439H.395a.375.375 0 01-.375-.375v-4.561c0-.207.168-.375.375-.375H10.88c.207 0 .375.168.375.375v4.561a.375.375 0 01-.375.375zm-10.11-.75h9.735v-3.811H.77v3.811z"/><path d="M6.165 25.159H5.109a.375.375 0 010-.75h1.056a.375.375 0 010 .75zM8.67 12.273a.375.375 0 01-.375-.375v-.918a.375.375 0 01.75 0v.918a.375.375 0 01-.375.375zM13.09 16.834a.375.375 0 01-.375-.375v-.918a.375.375 0 01.75 0v.918a.375.375 0 01-.375.375zM6.165 29.72H5.109a.375.375 0 010-.75h1.056a.375.375 0 010 .75z"/></symbol>
<symbol id="icon-Group-5" viewBox="0 0 34 32"><path d="M23.077 30.002H10.966a.4.4 0 01-.399-.399v-9.275a.4.4 0 01.399-.399h12.111a.4.4 0 01.399.399v9.275a.4.4 0 01-.399.399zm-11.712-.798h11.313v-8.477H11.365v8.477z"/><path d="M23.077 31.709H10.966a.4.4 0 01-.399-.399v-1.707a.4.4 0 01.399-.399h12.111a.4.4 0 01.399.399v1.707a.4.4 0 01-.399.399zm-11.712-.798h11.313v-.909H11.365v.909zM23.077 20.727H10.966a.4.4 0 01-.399-.399v-3.932a.4.4 0 01.399-.399h12.111a.4.4 0 01.399.399v3.932a.4.4 0 01-.399.399zm-11.712-.798h11.313v-3.135H11.365v3.135z"/><path d="M17.021 19.655a1.293 1.293 0 110-2.586 1.293 1.293 0 010 2.586zm0-1.788a.495.495 0 10.001.991.495.495 0 00-.001-.991zM20.38 19.655a1.293 1.293 0 110-2.586 1.293 1.293 0 010 2.586zm0-1.788a.495.495 0 10.001.991.495.495 0 00-.001-.991zM13.662 19.655a1.293 1.293 0 110-2.586 1.293 1.293 0 010 2.586zm0-1.788a.495.495 0 10.001.991.495.495 0 00-.001-.991zM20.735 23.059h-7.427a.938.938 0 010-1.877h7.427a.94.94 0 01.001 1.877h-.001zm-7.427-1.078a.14.14 0 100 .28h7.427a.14.14 0 100-.28h-7.427z"/><path d="M20.38 28.728h-6.718a.4.4 0 01-.399-.399V22.66a.4.4 0 01.399-.399h6.718a.4.4 0 01.399.399v5.669a.4.4 0 01-.399.399zm-6.319-.798h5.92v-4.871h-5.92v4.871zM14.363 16.795a.4.4 0 01-.399-.399v-.99a.4.4 0 01.798 0v.99a.4.4 0 01-.399.399zM16.254 16.795a.4.4 0 01-.399-.399v-.591h-.532a.4.4 0 010-.798h.931a.4.4 0 01.399.399v.99a.4.4 0 01-.399.399zM12.472 16.795a.4.4 0 01-.399-.399v-.99a.4.4 0 01.399-.399h.931a.4.4 0 010 .798h-.532v.591a.4.4 0 01-.399.399zM19.68 16.795a.4.4 0 01-.399-.399v-.99a.4.4 0 01.798 0v.99a.4.4 0 01-.399.399zM17.788 16.795a.4.4 0 01-.399-.399v-.99a.4.4 0 01.399-.399h.931a.4.4 0 010 .798h-.532v.591a.4.4 0 01-.399.399zM21.571 16.795a.4.4 0 01-.399-.399v-.591h-.532a.4.4 0 010-.798h.931a.4.4 0 01.399.399v.99a.4.4 0 01-.399.399zM25.005 18.248h-.714a.4.4 0 010-.798h.714a.4.4 0 010 .798z"/><path d="M26.219 31.709h-3.142a.4.4 0 01-.399-.399V16.396a.4.4 0 01.399-.399h3.142a.4.4 0 01.399.399V31.31a.4.4 0 01-.399.399zm-2.743-.798h2.344V16.795h-2.344v14.116z"/><path d="M33.644 24.252h-7.425a.4.4 0 01-.399-.399v-7.457a.4.4 0 01.399-.399h7.425a.4.4 0 01.399.399v7.457a.4.4 0 01-.399.399zm-7.026-.798h6.627v-6.659h-6.627v6.659z"/><path d="M30.888 18.248h-1.913a.4.4 0 010-.798h1.913a.4.4 0 010 .798zM6.639 18.248H4.726a.4.4 0 010-.798h1.913a.4.4 0 010 .798zM33.644 31.709h-7.425a.4.4 0 01-.399-.399v-7.457a.4.4 0 01.399-.399h7.425a.4.4 0 01.399.399v7.457a.4.4 0 01-.399.399zm-7.026-.798h6.627v-6.659h-6.627v6.659z"/><path d="M30.888 25.705h-1.913a.4.4 0 010-.798h1.913a.4.4 0 010 .798zM5.682 31.709H.399A.4.4 0 010 31.31V20.328a.4.4 0 01.399-.399h5.283a.4.4 0 01.399.399V31.31a.4.4 0 01-.399.399zm-4.884-.798h4.486V20.727H.798v10.184z"/><path d="M10.966 31.709H5.683a.4.4 0 01-.399-.399V20.328a.4.4 0 01.399-.399h5.283a.4.4 0 01.399.399V31.31a.4.4 0 01-.399.399zm-4.885-.798h4.486V20.727H6.081v10.184z"/><path d="M6.944 26.882a.4.4 0 01-.399-.399v-1.328a.4.4 0 01.798 0v1.328a.4.4 0 01-.399.399zM4.421 26.882a.4.4 0 01-.399-.399v-1.328a.4.4 0 01.798 0v1.328a.4.4 0 01-.399.399zM10.966 20.727H.399A.4.4 0 010 20.328v-3.932a.4.4 0 01.399-.399h10.567a.4.4 0 01.399.399v3.932a.4.4 0 01-.399.399zM.798 19.929h9.769v-3.135H.798v3.135zM22.627 8.435H11.416a.85.85 0 01-.849-.849V6.44a.85.85 0 01.849-.849h11.211a.85.85 0 01.849.849v1.146a.85.85 0 01-.849.849zM11.416 6.39a.051.051 0 00-.051.051v1.146c0 .028.023.051.051.051h11.212a.051.051 0 00.051-.051V6.441a.051.051 0 00-.051-.051H11.417z"/><path d="M21.795 6.39h-9.548a.841.841 0 01-.518-1.503l.307-.24A4.992 4.992 0 0013.964.69a.4.4 0 01.399-.399h5.317a.4.4 0 01.399.399 4.992 4.992 0 001.928 3.957l.307.24a.84.84 0 01-.518 1.503zm-7.047-5.301a5.782 5.782 0 01-2.221 4.186l-.307.24a.042.042 0 00-.007.06c.008.01.021.016.034.016h9.548a.043.043 0 00.043-.043.044.044 0 00-.016-.034l-.307-.24a5.78 5.78 0 01-2.221-4.186h-4.546zM32.409 8.435H26.06a1 1 0 010-2h6.349a1 1 0 010 2zM26.06 7.233a.202.202 0 000 .404h6.349a.202.202 0 000-.404H26.06zM7.982 8.435H1.634a1 1 0 010-2h6.348a1 1 0 010 2zM1.634 7.233a.202.202 0 000 .404h6.348c.112 0 .202-.09.202-.202s-.09-.202-.202-.202H1.634z"/><path d="M7.346 7.233H5.723a.4.4 0 01-.399-.399V5.462a.4.4 0 01.399-.399h1.623a.4.4 0 01.399.399v1.372a.4.4 0 01-.399.399zm-1.224-.798h.825v-.574h-.825v.574z"/><path d="M7.728 5.861H5.341a.4.4 0 010-.798h2.387a.4.4 0 010 .798zM3.894 7.233H2.271a.4.4 0 01-.399-.399V5.462a.4.4 0 01.399-.399h1.623a.4.4 0 01.399.399v1.372a.4.4 0 01-.399.399zM2.67 6.435h.825v-.574H2.67v.574z"/><path d="M4.276 5.861H1.889a.4.4 0 010-.798h2.387a.4.4 0 010 .798zM7.346 5.861H5.723a.4.4 0 01-.399-.399V4.091a.4.4 0 01.399-.399h1.623a.4.4 0 01.399.399v1.371a.4.4 0 01-.399.399zm-1.224-.797h.825V4.49h-.825v.574z"/><path d="M7.728 4.49H5.341a.4.4 0 010-.798h2.387a.4.4 0 010 .798zM3.894 5.861H2.271a.4.4 0 01-.399-.399V4.091a.4.4 0 01.399-.399h1.623a.4.4 0 01.399.399v1.371a.4.4 0 01-.399.399zM2.67 5.064h.825V4.49H2.67v.574z"/><path d="M4.276 4.49H1.889a.4.4 0 010-.798h2.387a.4.4 0 010 .798zM29.234 7.233a2.575 2.575 0 01-2.181-3.944.4.4 0 01.338-.186h3.685c.137 0 .264.07.337.186a2.575 2.575 0 01-2.18 3.944zM27.627 3.9a1.776 1.776 0 103.214 0h-3.215z"/><path d="M29.197 3.9a.4.4 0 01-.399-.399V.934a.4.4 0 01.798 0v2.567a.4.4 0 01-.399.399z"/><path d="M29.197 3.9a.4.4 0 01-.282-.681l1.38-1.38a.398.398 0 01.564.564l-1.38 1.38a.398.398 0 01-.282.117z"/><path d="M29.197 3.9a.398.398 0 01-.282-.117l-1.38-1.38a.4.4 0 01.558-.57l.006.006 1.38 1.38a.398.398 0 01-.282.681zM20.717 15.805h-1.946a2 2 0 01-1.998-1.998v-.938a.4.4 0 01.399-.399h5.144a.4.4 0 01.399.399v.938a2 2 0 01-1.998 1.998zm-3.146-2.538v.539c.001.663.538 1.2 1.201 1.2h1.946a1.202 1.202 0 001.201-1.2v-.539h-4.347z"/><path d="M23.077 13.971h-.76a.4.4 0 010-.798h.76a.4.4 0 010 .798zM17.043 13.971h-.76a.4.4 0 010-.798h.76a.4.4 0 010 .798z"/><path d="M22.317 13.267h-5.144a.4.4 0 01-.329-.625c.558-.812 1.67-1.317 2.901-1.317s2.343.504 2.901 1.317a.399.399 0 01-.329.625zm-4.073-.797h3.002a3.431 3.431 0 00-3.002 0z"/><path d="M19.257 12.154a.398.398 0 01-.265-.101 1.133 1.133 0 111.505 0 .399.399 0 11-.534-.592l.004-.003a.334.334 0 10-.444-.502.334.334 0 000 .502.399.399 0 01-.265.697zM4.733 16.795H3.048a.4.4 0 01-.399-.399v-4.285a.4.4 0 01.399-.399h1.685a.4.4 0 01.399.399v4.285a.4.4 0 01-.399.399zm-1.286-.798h.887V12.51h-.887v3.487z"/><path d="M3.048 16.795H1.363a.4.4 0 01-.399-.399v-4.285a.4.4 0 01.399-.399h1.685a.4.4 0 01.399.399v4.285a.4.4 0 01-.399.399zm-1.286-.798h.887V12.51h-.887v3.487zM8.434 16.795h-.752a1.381 1.381 0 01-1.379-1.379v-1.399a.4.4 0 01.399-.399h2.713a.4.4 0 01.399.399v1.399a1.381 1.381 0 01-1.379 1.379zM7.1 14.416v1c0 .321.26.581.581.581h.752a.58.58 0 00.581-.581v-1H7.099z"/><path d="M9.647 14.416H6.468a.755.755 0 01-.754-.754v-.414c0-.416.338-.753.754-.754h3.179c.416 0 .753.338.754.754v.414a.755.755 0 01-.754.754zm-3.135-.798h3.09v-.325H6.511v.325zM26.543 16.795h-2.054a.4.4 0 01-.399-.399v-2.807a.4.4 0 01.399-.399h2.054a.4.4 0 01.399.399v2.807a.4.4 0 01-.399.399zm-1.655-.798h1.256v-2.01h-1.256v2.009z"/><path d="M26.543 13.987h-2.054a.4.4 0 01-.399-.399v-1.226a.4.4 0 01.399-.399h2.054a.4.4 0 01.399.399v1.226a.4.4 0 01-.399.399zm-1.655-.798h1.256v-.428h-1.256v.428zM31.468 15.445c-.652 0-1.162-.627-1.162-1.428s.511-1.428 1.162-1.428c.652 0 1.162.627 1.162 1.428s-.511 1.428-1.162 1.428zm0-2.059c-.172 0-.364.27-.364.631s.192.631.364.631.364-.27.364-.631-.192-.631-.364-.631z"/><path d="M31.468 13.379a.4.4 0 01-.389-.31l-.61-2.66a1.025 1.025 0 111.998 0l-.61 2.66a.4.4 0 01-.389.31zm0-3.425a.227.227 0 00-.221.278l.221.964.221-.964a.227.227 0 00-.221-.278zM28.598 13.379a.4.4 0 01-.389-.31l-.61-2.66a1.025 1.025 0 111.998 0l-.61 2.66a.4.4 0 01-.389.31zm0-3.425a.227.227 0 00-.221.278l.221.964.221-.964a.227.227 0 00-.221-.278z"/><path d="M29.515 14.668h-1.833a.4.4 0 01-.395-.342c-.069-.46.066-.928.369-1.282.258-.297.601-.468.943-.468s.685.171.943.468c.303.354.437.821.369 1.282a.398.398 0 01-.395.342zm-1.418-.798H29.1a.77.77 0 00-.161-.304c-.101-.117-.235-.193-.34-.193s-.239.076-.34.193a.77.77 0 00-.161.304z"/></symbol>
<symbol id="icon-Group" viewBox="0 0 38 32"><path d="M17.777 30.163H6.386a1.719 1.719 0 01-1.717-1.717v-4.425a1.719 1.719 0 011.717-1.717h11.391a1.719 1.719 0 011.717 1.717v4.425a1.719 1.719 0 01-1.717 1.717zm-11.39-6.965a.825.825 0 00-.824.824v4.425c0 .455.369.823.824.824h11.391a.825.825 0 00.824-.824v-4.425a.825.825 0 00-.824-.824H6.387z"/><path d="M3.846 30.163H1.717A1.719 1.719 0 010 28.446v-8.471a1.719 1.719 0 011.717-1.717h2.129a1.719 1.719 0 011.717 1.717v8.471a1.719 1.719 0 01-1.717 1.717zM1.717 19.152a.825.825 0 00-.824.824v8.471a.825.825 0 00.824.824h2.129a.825.825 0 00.824-.824v-8.471a.825.825 0 00-.824-.824H1.717z"/><path d="M32.979 26.681H5.116a.446.446 0 110-.892h27.863a.446.446 0 010 .892zM17.777 23.198H6.386a1.719 1.719 0 01-1.717-1.717v-6.799a1.719 1.719 0 011.717-1.717h11.391a1.719 1.719 0 011.717 1.717v6.799a1.719 1.719 0 01-1.717 1.717zm-11.39-9.34a.825.825 0 00-.824.824v6.799c0 .455.369.823.824.824h11.391a.825.825 0 00.824-.824v-6.799a.825.825 0 00-.824-.824H6.387z"/><path d="M31.709 23.198H20.318a1.719 1.719 0 01-1.717-1.717v-6.799a1.719 1.719 0 011.717-1.717h11.391a1.719 1.719 0 011.717 1.717v6.799a1.719 1.719 0 01-1.717 1.717zm-11.391-9.34a.825.825 0 00-.824.824v6.799c0 .455.369.823.824.824h11.391a.825.825 0 00.824-.824v-6.799a.825.825 0 00-.824-.824H20.318z"/><path d="M31.709 30.163H20.318a1.719 1.719 0 01-1.717-1.717v-4.425a1.719 1.719 0 011.717-1.717h11.391a1.719 1.719 0 011.717 1.717v4.425a1.719 1.719 0 01-1.717 1.717zm-11.391-6.965a.825.825 0 00-.824.824v4.425c0 .455.369.823.824.824h11.391a.825.825 0 00.824-.824v-4.425a.825.825 0 00-.824-.824H20.318z"/><path d="M36.378 30.163h-2.129a1.719 1.719 0 01-1.717-1.717v-8.471a1.719 1.719 0 011.717-1.717h2.129a1.719 1.719 0 011.717 1.717v8.471a1.719 1.719 0 01-1.717 1.717zm-2.129-11.011a.825.825 0 00-.824.824v8.471a.825.825 0 00.824.824h2.129a.825.825 0 00.824-.824v-8.471a.825.825 0 00-.824-.824h-2.129zM20.091 23.198h-2.087a.446.446 0 110-.892h2.087a.446.446 0 110 .892zM27.219 11.672H10.876a.446.446 0 01-.446-.446V.619c0-.247.2-.446.446-.446h16.343c.247 0 .446.2.446.446v10.607c0 .246-.2.446-.446.446zm-15.897-.893h15.45V1.065h-15.45v9.714z"/><path d="M25.732 10.185H12.363a.446.446 0 01-.446-.446V2.107c0-.247.2-.446.446-.446h13.369c.247 0 .446.2.446.446v7.632c0 .247-.2.446-.446.446zM12.81 9.292h12.476V2.553H12.81v6.739z"/><path d="M13.963 8.549a.446.446 0 01-.315-.762l2.296-2.296a.447.447 0 01.631 0l1.393 1.393a.447.447 0 01-.631.631l-1.078-1.077-1.98 1.98a.446.446 0 01-.316.131z"/><path d="M24.132 8.526a.447.447 0 01-.316-.131l-1.63-1.63-1.834-1.834-.286-.286-.271-.27L17.31 6.86a.447.447 0 01-.631-.631l2.8-2.8a.446.446 0 01.632 0l.585.586.287.287 1.834 1.834 1.63 1.63a.447.447 0 01-.316.762z"/><path d="M22.502 6.895a.447.447 0 01-.316-.131L20.352 4.93a.447.447 0 01-.097-.485 1.853 1.853 0 112.416 2.415.446.446 0 01-.169.033zm-1.276-2.354l1.35 1.35a.96.96 0 10-1.35-1.35zM35.314 31.827a1.174 1.174 0 01-1.14-.89l-.277-1.112a.446.446 0 01.433-.554h1.968a.446.446 0 01.433.554l-.277 1.112c-.13.524-.6.891-1.14.89zm-.412-1.664l.139.558a.28.28 0 00.546 0l.139-.558h-.825zM2.781 31.827a1.174 1.174 0 01-1.14-.89l-.277-1.112a.446.446 0 01.433-.554h1.968a.446.446 0 01.433.554l-.277 1.112c-.13.524-.6.891-1.14.89zm-.412-1.664l.139.558a.28.28 0 00.546 0l.139-.558h-.825z"/></symbol>
<symbol id="icon-facebook" viewBox="0 0 16 32"><path d="M10.305 31.65V15.823h4.369l.579-5.454h-4.948l.007-2.73c0-1.423.135-2.185 2.178-2.185h2.731V-.001h-4.37c-5.249 0-7.096 2.646-7.096 7.095v3.275H.483v5.454h3.272v15.826h6.548z"/></symbol>
<symbol id="icon-shopping-cart" viewBox="0 0 31 32"><path d="M11.613 27.29a.323.323 0 100 .646.323.323 0 000-.646zm-2.258.323a2.258 2.258 0 114.516 0 2.258 2.258 0 01-4.516 0zM25.806 27.29a.323.323 0 100 .646.323.323 0 000-.646zm-2.258.323a2.258 2.258 0 114.516 0 2.258 2.258 0 01-4.516 0zM.323 1.806c0-.534.433-.968.968-.968h5.161c.461 0 .858.326.949.778L8.537 7.29h21.141a.97.97 0 01.951 1.149l-2.066 10.833a3.55 3.55 0 01-3.538 2.857H12.5a3.547 3.547 0 01-3.538-2.856L6.805 8.494a.68.68 0 01-.018-.092L5.66 2.773H1.292a.968.968 0 01-.968-.968zm8.601 7.42l1.935 9.67a1.613 1.613 0 001.613 1.298h12.58a1.617 1.617 0 001.612-1.295l.001-.003 1.844-9.67H8.925z"/></symbol>
<symbol id="icon-smartphone" viewBox="0 0 32 32"><path stroke-linejoin="round" stroke-linecap="round" stroke-width="2" d="M22.667 2.667H9.334a2.667 2.667 0 00-2.667 2.667v21.333a2.667 2.667 0 002.667 2.667h13.333a2.667 2.667 0 002.667-2.667V5.334a2.667 2.667 0 00-2.667-2.667zM16 24h.013"/></symbol>
<symbol id="icon-telegram" viewBox="0 0 37 32"><path d="M14.608 20.326v-.001L30.227 6.23c.685-.608-.15-.905-1.06-.353L9.89 18.038l-8.326-2.599c-1.798-.551-1.811-1.786.404-2.675L34.414.253c1.482-.673 2.912.356 2.346 2.624l-5.526 26.039c-.386 1.85-1.504 2.293-3.053 1.438l-8.417-6.219-4.046 3.934-.038.037c-.453.44-.827.805-1.646.805l.573-8.586z"/></symbol>
<symbol id="icon-Vector-Stroke" viewBox="0 0 56 32"><path d="M54.121 1.879a3 3 0 010 4.243l-24 24a3 3 0 01-4.243 0l-24-24a3 3 0 114.243-4.243L28 23.758 49.879 1.879a2.998 2.998 0 014.242 0z"/></symbol>
<symbol id="icon-calendar" viewBox="0 0 29 32"><path fill="var(--color1, #fff)" d="M4.364 5.455a1.818 1.818 0 00-1.818 1.818v20.364c0 1.004.814 1.818 1.818 1.818h20.364a1.818 1.818 0 001.818-1.818V7.273a1.818 1.818 0 00-1.818-1.818H4.364zm-4 1.818a4 4 0 014-4h20.364a4 4 0 014 4v20.364a4 4 0 01-4 4H4.364a4 4 0 01-4-4V7.273z"/><path fill="var(--color1, #fff)" d="M20.364.364c.602 0 1.091.488 1.091 1.091v5.818a1.09 1.09 0 11-2.182 0V1.455A1.09 1.09 0 0120.364.364zM8.727.364c.602 0 1.091.488 1.091 1.091v5.818a1.09 1.09 0 11-2.182 0V1.455A1.09 1.09 0 018.727.364zM.364 13.091C.364 12.489.852 12 1.455 12h26.182a1.091 1.091 0 010 2.182H1.455a1.09 1.09 0 01-1.091-1.091z"/></symbol>
<symbol id="icon-glynec" viewBox="0 0 30 32"><path fill="var(--color3, #ffd001)" d="M16.925 0C9.188 2.633 2.661 8.001 0 16c2.631 7.907 9.096 13.336 16.925 16 6.962-5.416 10.758-9.766 13.551-16-4.009-2.716-5.693-4.114-8.943-8.317-4.354 2.041-8.145 4.419-11.502 8.23 1.205 1.732 3.205 3.349 4.823 4.677 2.357-1.748 4.155-3.451 5.319-4.912.73.9 1.553 1.499 2.338 2-2.025 3.477-4.298 5.386-7.105 7.209-4.216-2.252-7.605-6.15-9.252-9.447 3.087-5.136 7.929-8.604 13.431-10.537-.891-1.575-2.06-3.042-2.66-4.903z"/></symbol>
<symbol id="icon-maps" viewBox="0 0 27 32"><path fill="var(--color1, #fff)" d="M13.333 2.333a11 11 0 00-11 11c0 4.265 2.766 8.354 5.726 11.479a39.556 39.556 0 005.274 4.631 39.556 39.556 0 005.274-4.631c2.96-3.125 5.726-7.214 5.726-11.479a11 11 0 00-11-11zm0 28.334l-.555.832-.041-.028-.108-.074a37.412 37.412 0 01-1.794-1.343 41.446 41.446 0 01-4.228-3.865C3.567 22.98.333 18.403.333 13.335a13 13 0 0126 0c0 5.069-3.234 9.646-6.274 12.854a41.446 41.446 0 01-5.625 4.927c-.17.123-.304.217-.397.281l-.108.074-.038.025-.003.002s-.001.001-.556-.831zm0 0l.555.832a1 1 0 01-1.11 0l.555-.832z"/><path fill="var(--color1, #fff)" d="M13.333 10.333a3 3 0 100 6 3 3 0 000-6zm-5 3a5 5 0 1110.001.001 5 5 0 01-10.001-.001z"/></symbol>
<symbol id="icon-close" viewBox="0 0 32 32"><path d="M31.439 3.166L28.273 0 15.72 12.553 3.167 0 .001 3.166l12.553 12.553L.001 28.272l3.166 3.166L15.72 18.885l12.553 12.553 3.166-3.166-12.553-12.553L31.439 3.166z"/>
</symbol>
<symbol id="icon-menu" viewBox="0 0 48 32"><path d="M0 5.333V0h48v5.333H0zm0 13.334h48v-5.333H0v5.333zM0 32h48v-5.333H0V32z"/></symbol></defs></svg>